<?xml version="1.0" encoding="UTF-8"?>
<svg width="90" height="20" viewBox="0 0 90 20" fill="none" xmlns="http://www.w3.org/2000/svg">
  <g transform="translate(30, 0)">
    <path d="M27.9727 3.12324C27.6435 1.89323 26.6768 0.926623 25.4468 0.597366C23.2193 2.24288e-07 14.285 0 14.285 0C14.285 0 5.35042 2.24288e-07 3.12292 0.597366C1.89292 0.926623 0.926311 1.89323 0.597054 3.12324C2.24288e-07 5.35074 0 10 0 10C0 10 2.24288e-07 14.6493 0.597054 16.8768C0.926311 18.1068 1.89292 19.0734 3.12292 19.4026C5.35042 20 14.285 20 14.285 20C14.285 20 23.2193 20 25.4468 19.4026C26.6768 19.0734 27.6435 18.1068 27.9727 16.8768C28.5698 14.6493 28.5698 10 28.5698 10C28.5698 10 28.5677 5.35074 27.9727 3.12324Z" fill="#FF0000"/>
    <path d="M11.4253 14.2854L18.8477 10.0004L11.4253 5.71533V14.2854Z" fill="white"/>
  </g>
</svg> 